<svg width="218" height="87" viewBox="0 0 218 87" fill="none" xmlns="http://www.w3.org/2000/svg">
<g filter="url(#filter0_d_245_144)">
<rect x="1" width="210" height="79" rx="20" fill="#8C8FC2"/>
<path d="M35.1 58C34.7667 58 34.4833 57.8833 34.25 57.65C34.0167 57.4167 33.9 57.1333 33.9 56.8V24.25C33.9 23.8833 34.0167 23.5833 34.25 23.35C34.4833 23.1167 34.7667 23 35.1 23H49.6C52.3 23 54.5 23.4167 56.2 24.25C57.9 25.05 59.15 26.1667 59.95 27.6C60.7833 29.0333 61.2 30.7 61.2 32.6C61.2 33.8667 60.9667 34.9833 60.5 35.95C60.0667 36.8833 59.5167 37.65 58.85 38.25C58.2167 38.85 57.5833 39.3167 56.95 39.65C58.25 40.25 59.4 41.25 60.4 42.65C61.4 44.05 61.9 45.7167 61.9 47.65C61.9 49.65 61.45 51.4333 60.55 53C59.65 54.5667 58.3167 55.8 56.55 56.7C54.7833 57.5667 52.6 58 50 58H35.1ZM40.85 52.7H49.2C51 52.7 52.3667 52.2167 53.3 51.25C54.2333 50.25 54.7 49.05 54.7 47.65C54.7 46.1833 54.2167 44.9667 53.25 44C52.3167 43.0333 50.9667 42.55 49.2 42.55H40.85V52.7ZM40.85 37.35H48.7C50.4667 37.35 51.7833 36.9333 52.65 36.1C53.55 35.2333 54 34.1167 54 32.75C54 31.35 53.55 30.2667 52.65 29.5C51.7833 28.7 50.4667 28.3 48.7 28.3H40.85V37.35ZM69.3773 58C69.044 58 68.7607 57.8833 68.5273 57.65C68.294 57.4167 68.1773 57.1333 68.1773 56.8V24.25C68.1773 23.8833 68.294 23.5833 68.5273 23.35C68.7607 23.1167 69.044 23 69.3773 23H91.3773C91.744 23 92.044 23.1167 92.2773 23.35C92.5107 23.5833 92.6273 23.8833 92.6273 24.25V27.55C92.6273 27.8833 92.5107 28.1667 92.2773 28.4C92.044 28.6333 91.744 28.75 91.3773 28.75H74.9273V37.6H90.2773C90.644 37.6 90.944 37.7167 91.1773 37.95C91.4107 38.15 91.5273 38.4333 91.5273 38.8V41.9C91.5273 42.2667 91.4107 42.5667 91.1773 42.8C90.944 43 90.644 43.1 90.2773 43.1H74.9273V52.25H91.7773C92.144 52.25 92.444 52.3667 92.6773 52.6C92.9107 52.8333 93.0273 53.1333 93.0273 53.5V56.8C93.0273 57.1333 92.9107 57.4167 92.6773 57.65C92.444 57.8833 92.144 58 91.7773 58H69.3773ZM112.588 58.5C109.521 58.5 106.905 57.9667 104.738 56.9C102.605 55.8333 100.938 54.3 99.7379 52.3C98.5712 50.2667 97.9379 47.85 97.8379 45.05C97.8046 43.6167 97.7879 42.0833 97.7879 40.45C97.7879 38.7833 97.8046 37.2167 97.8379 35.75C97.9379 32.9833 98.5712 30.6167 99.7379 28.65C100.938 26.6833 102.621 25.1667 104.788 24.1C106.988 23.0333 109.588 22.5 112.588 22.5C115.021 22.5 117.155 22.8333 118.988 23.5C120.821 24.1333 122.338 24.9667 123.538 26C124.771 27 125.688 28.0833 126.288 29.25C126.921 30.4167 127.255 31.5 127.288 32.5C127.321 32.8 127.238 33.05 127.038 33.25C126.838 33.45 126.571 33.55 126.238 33.55H121.088C120.755 33.55 120.505 33.4833 120.338 33.35C120.171 33.2167 120.021 33.0167 119.888 32.75C119.621 32.05 119.205 31.3667 118.638 30.7C118.071 30 117.305 29.4167 116.338 28.95C115.371 28.4833 114.121 28.25 112.588 28.25C110.321 28.25 108.505 28.85 107.138 30.05C105.805 31.25 105.088 33.2333 104.988 36C104.888 38.9 104.888 41.8333 104.988 44.8C105.088 47.6333 105.821 49.6667 107.188 50.9C108.588 52.1333 110.421 52.75 112.688 52.75C114.188 52.75 115.521 52.4833 116.688 51.95C117.888 51.4167 118.821 50.5833 119.488 49.45C120.188 48.3167 120.538 46.8667 120.538 45.1V43.55H114.438C114.105 43.55 113.821 43.4333 113.588 43.2C113.355 42.9667 113.238 42.6667 113.238 42.3V39.65C113.238 39.2833 113.355 38.9833 113.588 38.75C113.821 38.5167 114.105 38.4 114.438 38.4H126.388C126.755 38.4 127.038 38.5167 127.238 38.75C127.471 38.9833 127.588 39.2833 127.588 39.65V44.9C127.588 47.7 126.971 50.1167 125.738 52.15C124.538 54.1833 122.805 55.75 120.538 56.85C118.305 57.95 115.655 58.5 112.588 58.5ZM135.198 58C134.864 58 134.581 57.8833 134.348 57.65C134.114 57.4167 133.998 57.1333 133.998 56.8V24.2C133.998 23.8667 134.114 23.5833 134.348 23.35C134.581 23.1167 134.864 23 135.198 23H139.898C140.264 23 140.548 23.1167 140.748 23.35C140.981 23.5833 141.098 23.8667 141.098 24.2V56.8C141.098 57.1333 140.981 57.4167 140.748 57.65C140.548 57.8833 140.264 58 139.898 58H135.198ZM150.139 58C149.806 58 149.522 57.8833 149.289 57.65C149.056 57.4167 148.939 57.1333 148.939 56.8V24.25C148.939 23.8833 149.056 23.5833 149.289 23.35C149.522 23.1167 149.806 23 150.139 23H153.989C154.456 23 154.789 23.1167 154.989 23.35C155.222 23.55 155.372 23.7 155.439 23.8L169.839 46.2V24.25C169.839 23.8833 169.939 23.5833 170.139 23.35C170.372 23.1167 170.672 23 171.039 23H175.239C175.606 23 175.906 23.1167 176.139 23.35C176.372 23.5833 176.489 23.8833 176.489 24.25V56.75C176.489 57.1167 176.372 57.4167 176.139 57.65C175.906 57.8833 175.622 58 175.289 58H171.389C170.922 58 170.589 57.8833 170.389 57.65C170.189 57.4167 170.039 57.2667 169.939 57.2L155.589 35.3V56.8C155.589 57.1333 155.472 57.4167 155.239 57.65C155.006 57.8833 154.706 58 154.339 58H150.139Z" fill="#FAFAFD"/>
</g>
<defs>
<filter id="filter0_d_245_144" x="0" y="0" width="218" height="87" filterUnits="userSpaceOnUse" color-interpolation-filters="sRGB">
<feFlood flood-opacity="0" result="BackgroundImageFix"/>
<feColorMatrix in="SourceAlpha" type="matrix" values="0 0 0 0 0 0 0 0 0 0 0 0 0 0 0 0 0 0 127 0" result="hardAlpha"/>
<feOffset dx="3" dy="4"/>
<feGaussianBlur stdDeviation="2"/>
<feComposite in2="hardAlpha" operator="out"/>
<feColorMatrix type="matrix" values="0 0 0 0 0 0 0 0 0 0 0 0 0 0 0 0 0 0 0.5 0"/>
<feBlend mode="normal" in2="BackgroundImageFix" result="effect1_dropShadow_245_144"/>
<feBlend mode="normal" in="SourceGraphic" in2="effect1_dropShadow_245_144" result="shape"/>
</filter>
</defs>
</svg>
