<svg width="1280" height="720" viewBox="0 0 1280 720" fill="none" xmlns="http://www.w3.org/2000/svg">
<rect width="1280" height="720" fill="#D9D9D9"/>
<g filter="url(#filter0_d_498_576)">
<path fill-rule="evenodd" clip-rule="evenodd" d="M1052.67 230.667C1090.53 224.644 1118.11 206.072 1118.11 184.093C1118.11 162.115 1090.53 143.542 1052.67 137.52C1100.82 138.395 1139.33 158.911 1139.33 184.093C1139.33 209.275 1100.82 229.792 1052.67 230.667Z" fill="#8C8FC2"/>
<path d="M1082.96 124.575C1083.42 123.719 1084.7 123.946 1084.84 124.906L1086.16 134.33C1086.22 134.76 1086.55 135.101 1086.98 135.177L1096.35 136.833C1097.3 137.001 1097.49 138.292 1096.62 138.717L1088.07 142.885C1087.68 143.075 1087.45 143.494 1087.51 143.923L1088.84 153.348C1088.98 154.308 1087.81 154.879 1087.13 154.181L1080.52 147.333C1080.22 147.021 1079.75 146.939 1079.36 147.128L1070.81 151.297C1069.94 151.722 1069.04 150.784 1069.49 149.928L1073.96 141.527C1074.16 141.145 1074.09 140.674 1073.79 140.363L1067.18 133.514C1066.51 132.817 1067.12 131.666 1068.07 131.835L1077.44 133.491C1077.87 133.566 1078.3 133.358 1078.5 132.976L1082.96 124.575Z" fill="#DFE0F2"/>
<path d="M1105.01 137.659C1105.14 136.699 1106.43 136.473 1106.88 137.328L1110.21 143.591C1110.41 143.974 1110.84 144.181 1111.27 144.106L1118.25 142.871C1119.2 142.703 1119.82 143.854 1119.14 144.551L1114.21 149.656C1113.91 149.968 1113.85 150.438 1114.05 150.821L1117.38 157.084C1117.83 157.939 1116.93 158.877 1116.06 158.453L1109.68 155.345C1109.29 155.155 1108.83 155.238 1108.52 155.549L1103.6 160.655C1102.92 161.352 1101.75 160.781 1101.89 159.822L1102.88 152.795C1102.94 152.366 1102.71 151.947 1102.32 151.757L1095.95 148.65C1095.08 148.225 1095.26 146.934 1096.22 146.766L1103.2 145.531C1103.63 145.456 1103.96 145.114 1104.02 144.685L1105.01 137.659Z" fill="#DFE0F2"/>
</g>
<g filter="url(#filter1_d_498_576)">
<path d="M1101.41 228.333H1062.94C1061.09 228.333 1059.83 226.905 1060.17 225.141L1061.76 216.237C1062.1 214.473 1063.86 212.961 1065.71 212.961H1102.59C1103.68 212.961 1104.77 212.121 1104.94 211.029L1105.44 208.257C1105.61 207.165 1104.86 206.241 1103.76 206.241H1077.3C1068.65 206.241 1062.94 199.437 1064.45 190.953L1065.54 184.989C1067.06 176.505 1075.29 169.617 1083.86 169.617H1123.08C1124.93 169.617 1126.19 171.045 1125.86 172.893L1124.34 181.293C1124.01 183.141 1122.24 184.569 1120.4 184.569H1084.53C1083.44 184.569 1082.34 185.493 1082.18 186.585L1081.5 190.281C1081.34 191.373 1082.01 192.213 1083.1 192.213H1109.64C1118.3 192.213 1124.01 199.101 1122.5 207.585L1121.49 213.045C1119.98 221.529 1111.74 228.417 1103.18 228.417H1101.41V228.333Z" fill="#FAFAFD"/>
</g>
<ellipse cx="235.333" cy="217" rx="144.667" ry="129" fill="#7E5D5D"/>
<ellipse cx="720.667" cy="414.333" rx="152" ry="159" fill="#151313"/>
<circle cx="1030" cy="391.333" r="33.3333" fill="#793939"/>
<defs>
<filter id="filter0_d_498_576" x="1048.67" y="124.044" width="94.6667" height="114.623" filterUnits="userSpaceOnUse" color-interpolation-filters="sRGB">
<feFlood flood-opacity="0" result="BackgroundImageFix"/>
<feColorMatrix in="SourceAlpha" type="matrix" values="0 0 0 0 0 0 0 0 0 0 0 0 0 0 0 0 0 0 127 0" result="hardAlpha"/>
<feOffset dy="4"/>
<feGaussianBlur stdDeviation="2"/>
<feComposite in2="hardAlpha" operator="out"/>
<feColorMatrix type="matrix" values="0 0 0 0 0 0 0 0 0 0 0 0 0 0 0 0 0 0 0.25 0"/>
<feBlend mode="normal" in2="BackgroundImageFix" result="effect1_dropShadow_498_576"/>
<feBlend mode="normal" in="SourceGraphic" in2="effect1_dropShadow_498_576" result="shape"/>
</filter>
<filter id="filter1_d_498_576" x="1055.83" y="169.617" width="74.3599" height="66.8" filterUnits="userSpaceOnUse" color-interpolation-filters="sRGB">
<feFlood flood-opacity="0" result="BackgroundImageFix"/>
<feColorMatrix in="SourceAlpha" type="matrix" values="0 0 0 0 0 0 0 0 0 0 0 0 0 0 0 0 0 0 127 0" result="hardAlpha"/>
<feOffset dy="4"/>
<feGaussianBlur stdDeviation="2"/>
<feComposite in2="hardAlpha" operator="out"/>
<feColorMatrix type="matrix" values="0 0 0 0 0 0 0 0 0 0 0 0 0 0 0 0 0 0 0.25 0"/>
<feBlend mode="normal" in2="BackgroundImageFix" result="effect1_dropShadow_498_576"/>
<feBlend mode="normal" in="SourceGraphic" in2="effect1_dropShadow_498_576" result="shape"/>
</filter>
</defs>
</svg>
