<svg width="1920" height="1080" viewBox="0 0 1920 1080" fill="none" xmlns="http://www.w3.org/2000/svg">
<rect width="1920" height="1080" fill="#D9D9D9"/>
<g filter="url(#filter0_d_498_576)">
<path fill-rule="evenodd" clip-rule="evenodd" d="M1579 346C1635.79 336.967 1677.16 309.107 1677.16 276.14C1677.16 243.172 1635.79 215.313 1579 206.28C1651.23 207.592 1709 238.367 1709 276.14C1709 313.913 1651.23 344.688 1579 346Z" fill="#8C8FC2"/>
<path d="M1625.17 185.503C1625.62 184.648 1626.9 184.875 1627.04 185.834L1629.3 201.855C1629.36 202.285 1629.69 202.626 1630.11 202.701L1646.04 205.517C1647 205.685 1647.18 206.976 1646.31 207.401L1631.77 214.487C1631.38 214.677 1631.16 215.096 1631.22 215.525L1633.48 231.546C1633.61 232.506 1632.44 233.077 1631.77 232.38L1620.53 220.738C1620.23 220.426 1619.76 220.344 1619.37 220.533L1604.84 227.62C1603.97 228.044 1603.06 227.106 1603.52 226.251L1611.1 211.97C1611.31 211.587 1611.24 211.117 1610.94 210.805L1599.7 199.164C1599.03 198.467 1599.64 197.316 1600.59 197.484L1616.52 200.3C1616.95 200.375 1617.38 200.167 1617.58 199.785L1625.17 185.503Z" fill="#DFE0F2"/>
<path d="M1657.73 204.964C1657.86 204.005 1659.15 203.778 1659.6 204.633L1665.48 215.707C1665.69 216.09 1666.11 216.298 1666.54 216.222L1678.89 214.039C1679.85 213.871 1680.46 215.021 1679.78 215.719L1671.07 224.746C1670.77 225.057 1670.7 225.528 1670.9 225.91L1676.79 236.984C1677.24 237.839 1676.34 238.777 1675.47 238.353L1664.2 232.858C1663.81 232.668 1663.34 232.751 1663.04 233.063L1654.32 242.09C1653.65 242.787 1652.48 242.216 1652.62 241.256L1654.37 228.833C1654.43 228.404 1654.2 227.985 1653.81 227.795L1642.54 222.3C1641.67 221.876 1641.85 220.585 1642.81 220.416L1655.16 218.233C1655.59 218.158 1655.92 217.816 1655.98 217.387L1657.73 204.964Z" fill="#DFE0F2"/>
</g>
<g filter="url(#filter1_d_498_576)">
<path d="M1631.41 311H1592.94C1591.09 311 1589.83 309.572 1590.17 307.808L1591.76 298.904C1592.1 297.14 1593.86 295.628 1595.71 295.628H1632.59C1633.68 295.628 1634.77 294.788 1634.94 293.696L1635.44 290.924C1635.61 289.832 1634.86 288.908 1633.76 288.908H1607.3C1598.65 288.908 1592.94 282.104 1594.45 273.62L1595.54 267.656C1597.06 259.172 1605.29 252.284 1613.86 252.284H1653.08C1654.93 252.284 1656.19 253.712 1655.86 255.56L1654.34 263.96C1654.01 265.808 1652.24 267.236 1650.4 267.236H1614.53C1613.44 267.236 1612.34 268.16 1612.18 269.252L1611.5 272.948C1611.34 274.04 1612.01 274.88 1613.1 274.88H1639.64C1648.3 274.88 1654.01 281.768 1652.5 290.252L1651.49 295.712C1649.98 304.196 1641.74 311.084 1633.18 311.084H1631.41V311Z" fill="#FAFAFD"/>
</g>
<ellipse cx="353" cy="325.5" rx="217" ry="193.5" fill="#7E5D5D"/>
<ellipse cx="1081" cy="621.5" rx="228" ry="238.5" fill="#151313"/>
<circle cx="1545" cy="587" r="50" fill="#793939"/>
<defs>
<filter id="filter0_d_498_576" x="1575" y="184.972" width="138" height="169.028" filterUnits="userSpaceOnUse" color-interpolation-filters="sRGB">
<feFlood flood-opacity="0" result="BackgroundImageFix"/>
<feColorMatrix in="SourceAlpha" type="matrix" values="0 0 0 0 0 0 0 0 0 0 0 0 0 0 0 0 0 0 127 0" result="hardAlpha"/>
<feOffset dy="4"/>
<feGaussianBlur stdDeviation="2"/>
<feComposite in2="hardAlpha" operator="out"/>
<feColorMatrix type="matrix" values="0 0 0 0 0 0 0 0 0 0 0 0 0 0 0 0 0 0 0.25 0"/>
<feBlend mode="normal" in2="BackgroundImageFix" result="effect1_dropShadow_498_576"/>
<feBlend mode="normal" in="SourceGraphic" in2="effect1_dropShadow_498_576" result="shape"/>
</filter>
<filter id="filter1_d_498_576" x="1585.83" y="252.284" width="74.3599" height="66.8" filterUnits="userSpaceOnUse" color-interpolation-filters="sRGB">
<feFlood flood-opacity="0" result="BackgroundImageFix"/>
<feColorMatrix in="SourceAlpha" type="matrix" values="0 0 0 0 0 0 0 0 0 0 0 0 0 0 0 0 0 0 127 0" result="hardAlpha"/>
<feOffset dy="4"/>
<feGaussianBlur stdDeviation="2"/>
<feComposite in2="hardAlpha" operator="out"/>
<feColorMatrix type="matrix" values="0 0 0 0 0 0 0 0 0 0 0 0 0 0 0 0 0 0 0.25 0"/>
<feBlend mode="normal" in2="BackgroundImageFix" result="effect1_dropShadow_498_576"/>
<feBlend mode="normal" in="SourceGraphic" in2="effect1_dropShadow_498_576" result="shape"/>
</filter>
</defs>
</svg>
