<svg width="617" height="497" viewBox="0 0 617 497" fill="none" xmlns="http://www.w3.org/2000/svg">
<path d="M16.8613 15.1198L17.8123 14.8108L16.8613 15.1199L18.7391 20.8992L13.8229 17.3274L13.2351 18.1364L13.8229 17.3274C13.3322 16.9709 12.6678 16.9709 12.1771 17.3274L7.2609 20.8992L9.13872 15.1199C9.32615 14.543 9.12083 13.9111 8.63014 13.5546L3.71395 9.98278H9.7907C10.3972 9.98278 10.9348 9.59224 11.1222 9.0154L13 3.23607L14.8778 9.0154C15.0652 9.59223 15.6028 9.98278 16.2093 9.98278H22.2861L17.3699 13.5546L17.9576 14.3636L17.3699 13.5546C16.8792 13.9111 16.6739 14.543 16.8613 15.1198Z" fill="#DFE0F2" stroke="#DFE0F2" stroke-width="2"/>
<path d="M527.861 395.12L528.812 394.811L527.861 395.12L529.739 400.899L524.823 397.327L524.235 398.136L524.823 397.327C524.332 396.971 523.668 396.971 523.177 397.327L518.261 400.899L520.139 395.12C520.326 394.543 520.121 393.911 519.63 393.555L514.714 389.983H520.791C521.397 389.983 521.935 389.592 522.122 389.015L524 383.236L525.878 389.015C526.065 389.592 526.603 389.983 527.209 389.983H533.286L528.37 393.555L528.958 394.364L528.37 393.555C527.879 393.911 527.674 394.543 527.861 395.12Z" fill="#DFE0F2" stroke="#DFE0F2" stroke-width="2"/>
<path d="M52.8613 480.12L53.8123 479.811L52.8613 480.12L54.7391 485.899L49.8229 482.327L49.2351 483.136L49.8229 482.327C49.3322 481.971 48.6678 481.971 48.1771 482.327L43.2609 485.899L45.1387 480.12C45.3261 479.543 45.1208 478.911 44.6301 478.555L39.7139 474.983H45.7907C46.3972 474.983 46.9348 474.592 47.1222 474.015L49 468.236L50.8778 474.015C51.0652 474.592 51.6028 474.983 52.2093 474.983H58.2861L53.3699 478.555L53.9576 479.364L53.3699 478.555C52.8792 478.911 52.6739 479.543 52.8613 480.12Z" fill="#DFE0F2" stroke="#DFE0F2" stroke-width="2"/>
<path d="M264.861 180.12L265.812 179.811L264.861 180.12L266.739 185.899L261.823 182.327L261.235 183.136L261.823 182.327C261.332 181.971 260.668 181.971 260.177 182.327L255.261 185.899L257.139 180.12C257.326 179.543 257.121 178.911 256.63 178.555L251.714 174.983H257.791C258.397 174.983 258.935 174.592 259.122 174.015L261 168.236L262.878 174.015C263.065 174.592 263.603 174.983 264.209 174.983H270.286L265.37 178.555L265.958 179.364L265.37 178.555C264.879 178.911 264.674 179.543 264.861 180.12Z" fill="#DFE0F2" stroke="#DFE0F2" stroke-width="2"/>
<path d="M607.861 82.1198L608.812 81.8108L607.861 82.1199L609.739 87.8992L604.823 84.3274L604.235 85.1364L604.823 84.3274C604.332 83.9709 603.668 83.9709 603.177 84.3274L598.261 87.8992L600.139 82.1199C600.326 81.543 600.121 80.9111 599.63 80.5546L594.714 76.9828H600.791C601.397 76.9828 601.935 76.5922 602.122 76.0154L604 70.2361L605.878 76.0154C606.065 76.5922 606.603 76.9828 607.209 76.9828H613.286L608.37 80.5546L608.958 81.3636L608.37 80.5546C607.879 80.9111 607.674 81.543 607.861 82.1198Z" fill="#DFE0F2" stroke="#DFE0F2" stroke-width="2"/>
<path d="M71.8613 163.12L72.8123 162.811L71.8613 163.12L73.7391 168.899L68.8229 165.327L68.2351 166.136L68.8229 165.327C68.3322 164.971 67.6678 164.971 67.1771 165.327L62.2609 168.899L64.1387 163.12C64.3261 162.543 64.1208 161.911 63.6301 161.555L58.7139 157.983H64.7907C65.3972 157.983 65.9348 157.592 66.1222 157.015L68 151.236L69.8778 157.015C70.0652 157.592 70.6028 157.983 71.2093 157.983H77.2861L72.3699 161.555L72.9576 162.364L72.3699 161.555C71.8792 161.911 71.6739 162.543 71.8613 163.12Z" fill="#DFE0F2" stroke="#DFE0F2" stroke-width="2"/>
<path d="M342.861 33.1198L343.812 32.8108L342.861 33.1199L344.739 38.8992L339.823 35.3274L339.235 36.1364L339.823 35.3274C339.332 34.9709 338.668 34.9709 338.177 35.3274L333.261 38.8992L335.139 33.1199C335.326 32.543 335.121 31.9111 334.63 31.5546L329.714 27.9828H335.791C336.397 27.9828 336.935 27.5922 337.122 27.0154L339 21.2361L340.878 27.0154C341.065 27.5922 341.603 27.9828 342.209 27.9828H348.286L343.37 31.5546L343.958 32.3636L343.37 31.5546C342.879 31.9111 342.674 32.543 342.861 33.1198Z" fill="#DFE0F2" stroke="#DFE0F2" stroke-width="2"/>
<path d="M376.02 426.251L377 423.236L377.98 426.251C378.167 426.828 378.705 427.219 379.311 427.219H382.482L379.917 429.082C379.426 429.439 379.221 430.071 379.408 430.648L380.388 433.663L377.823 431.799C377.332 431.443 376.668 431.443 376.177 431.799L373.612 433.663L374.592 430.648C374.779 430.071 374.574 429.439 374.083 429.082L371.518 427.219H374.689C375.295 427.219 375.833 426.828 376.02 426.251Z" fill="#DFE0F2" stroke="#DFE0F2" stroke-width="2"/>
<path d="M595.02 485.251L596 482.236L596.98 485.251C597.167 485.828 597.705 486.219 598.311 486.219H601.482L598.917 488.082C598.426 488.439 598.221 489.071 598.408 489.648L599.388 492.663L596.823 490.799C596.332 490.443 595.668 490.443 595.177 490.799L592.612 492.663L593.592 489.648C593.779 489.071 593.574 488.439 593.083 488.082L590.518 486.219H593.689C594.295 486.219 594.833 485.828 595.02 485.251Z" fill="#DFE0F2" stroke="#DFE0F2" stroke-width="2"/>
<path d="M537.02 208.251L538 205.236L538.98 208.251C539.167 208.828 539.705 209.219 540.311 209.219H543.482L540.917 211.082C540.426 211.439 540.221 212.071 540.408 212.648L541.388 215.663L538.823 213.799C538.332 213.443 537.668 213.443 537.177 213.799L534.612 215.663L535.592 212.648C535.779 212.071 535.574 211.439 535.083 211.082L532.518 209.219H535.689C536.295 209.219 536.833 208.828 537.02 208.251Z" fill="#DFE0F2" stroke="#DFE0F2" stroke-width="2"/>
<path d="M403.02 111.251L404 108.236L404.98 111.251C405.167 111.828 405.705 112.219 406.311 112.219H409.482L406.917 114.082C406.426 114.439 406.221 115.071 406.408 115.648L407.388 118.663L404.823 116.799C404.332 116.443 403.668 116.443 403.177 116.799L400.612 118.663L401.592 115.648C401.779 115.071 401.574 114.439 401.083 114.082L398.518 112.219H401.689C402.295 112.219 402.833 111.828 403.02 111.251Z" fill="#DFE0F2" stroke="#DFE0F2" stroke-width="2"/>
<path d="M189.02 254.251L190 251.236L190.98 254.251C191.167 254.828 191.705 255.219 192.311 255.219H195.482L192.917 257.082C192.426 257.439 192.221 258.071 192.408 258.648L193.388 261.663L190.823 259.799C190.332 259.443 189.668 259.443 189.177 259.799L186.612 261.663L187.592 258.648C187.779 258.071 187.574 257.439 187.083 257.082L184.518 255.219H187.689C188.295 255.219 188.833 254.828 189.02 254.251Z" fill="#DFE0F2" stroke="#DFE0F2" stroke-width="2"/>
<path d="M147.02 32.2515L148 29.2361L148.98 32.2515C149.167 32.8283 149.705 33.2188 150.311 33.2188H153.482L150.917 35.0825C150.426 35.439 150.221 36.0709 150.408 36.6477L151.388 39.6631L148.823 37.7995C148.332 37.443 147.668 37.443 147.177 37.7995L144.612 39.6631L145.592 36.6477C145.779 36.0709 145.574 35.439 145.083 35.0825L142.518 33.2188H145.689C146.295 33.2188 146.833 32.8283 147.02 32.2515Z" fill="#DFE0F2" stroke="#DFE0F2" stroke-width="2"/>
<path d="M521.02 28.2515L522 25.2361L522.98 28.2515C523.167 28.8283 523.705 29.2188 524.311 29.2188H527.482L524.917 31.0825C524.426 31.439 524.221 32.0709 524.408 32.6477L525.388 35.6631L522.823 33.7995C522.332 33.443 521.668 33.443 521.177 33.7995L518.612 35.6631L519.592 32.6477C519.779 32.0709 519.574 31.439 519.083 31.0825L516.518 29.2188H519.689C520.295 29.2188 520.833 28.8283 521.02 28.2515Z" fill="#DFE0F2" stroke="#DFE0F2" stroke-width="2"/>
<path d="M25.0202 305.251L26 302.236L26.9798 305.251C27.1672 305.828 27.7047 306.219 28.3112 306.219H31.4818L28.9168 308.082C28.4261 308.439 28.2208 309.071 28.4082 309.648L29.388 312.663L26.8229 310.799C26.3322 310.443 25.6678 310.443 25.1771 310.799L22.612 312.663L23.5918 309.648C23.7792 309.071 23.5739 308.439 23.0832 308.082L20.5182 306.219H23.6888C24.2953 306.219 24.8328 305.828 25.0202 305.251Z" fill="#DFE0F2" stroke="#DFE0F2" stroke-width="2"/>
</svg>
