<svg width="1600" height="769" viewBox="0 0 1600 769" fill="none" xmlns="http://www.w3.org/2000/svg">
<path fill-rule="evenodd" clip-rule="evenodd" d="M800 0H0V769H800V0Z" fill="#3A1772"/>
<path d="M1600 769V0H800V769H1600Z" fill="#B9BBDE"/>
<path d="M406.999 413H392.999V416.5V444.5V496V509V528.75L360 516.732L352.5 514L358.327 504L392.999 444.5V416.5L268.28 632.764C268.097 633.082 268 633.443 268 633.811V633.811C268 636.124 269.876 638 272.189 638H279.259C280.336 638 281.33 637.423 281.864 636.488L345 526L392.999 543.5V638C392.999 639.657 394.342 641 395.999 641H403.999C405.655 641 406.999 639.657 406.999 638V543.5L455 526L518.635 636.497C519.17 637.427 520.161 638 521.234 638H527.811C530.124 638 532 636.124 532 633.811V633.811C532 633.443 531.903 633.082 531.72 632.764L406.999 416.5V444.5L441.672 504L447.5 514L440.635 516.5L406.999 528.75V509V496V444.5V416.5V413Z" fill="#8C8FC2"/>
<path d="M440.635 516.5L447.5 514L441.672 504L406.999 496V509L440.635 516.5Z" fill="#6063A3"/>
<path d="M352.5 514L360 516.732L392.999 509V496L358.327 504L352.5 514Z" fill="#6063A3"/>
<path d="M392.999 416.5V413H406.999V416.5M392.999 416.5L268.28 632.764C268.097 633.082 268 633.443 268 633.811V633.811C268 636.124 269.876 638 272.189 638H279.259C280.336 638 281.33 637.423 281.864 636.488L345 526L392.999 543.5V638C392.999 639.657 394.342 641 395.999 641H403.999C405.655 641 406.999 639.657 406.999 638V543.5L455 526L518.635 636.497C519.17 637.427 520.161 638 521.234 638H527.811C530.124 638 532 636.124 532 633.811V633.811C532 633.443 531.903 633.082 531.72 632.764L406.999 416.5M392.999 416.5V444.5M406.999 416.5V444.5M406.999 444.5V496M406.999 444.5L441.672 504M392.999 444.5L358.327 504M392.999 444.5V496M360 516.732L352.5 514L358.327 504M360 516.732L392.999 528.75V509M360 516.732L392.999 509M392.999 509V496M358.327 504L392.999 496M406.999 496L441.672 504M406.999 496V509M441.672 504L447.5 514L440.635 516.5M406.999 509V528.75L440.635 516.5M406.999 509L440.635 516.5M441 516.367L440.635 516.5" stroke="#6063A3" stroke-width="3"/>
<path d="M595.71 352.087C598.133 351.205 599.904 349.256 601.099 346.739C602.289 344.229 602.957 341.061 603.156 337.5C603.554 330.373 602.09 321.371 598.732 312.145C595.374 302.919 590.709 295.081 585.823 289.877C583.381 287.277 580.833 285.28 578.308 284.123C575.775 282.962 573.166 282.607 570.743 283.489C568.32 284.371 566.549 286.32 565.355 288.837C564.165 291.347 563.497 294.515 563.298 298.076C562.899 305.203 564.364 314.205 567.722 323.431C571.08 332.657 575.744 340.495 580.631 345.699C583.072 348.299 585.62 350.296 588.145 351.453C590.678 352.614 593.288 352.969 595.71 352.087Z" fill="#DFE0F2" stroke="#6063A3" stroke-width="3"/>
<path d="M274.331 406.384L273.818 404.975L272.408 405.488L214.147 426.693C210.255 428.11 208.248 432.414 209.665 436.306L220.609 466.376C222.026 470.268 226.33 472.275 230.222 470.859L288.483 449.653L289.893 449.14L289.379 447.731L274.331 406.384Z" fill="#DFE0F2" stroke="#6063A3" stroke-width="3"/>
<path d="M368.639 361.417L368.126 360.008L366.716 360.521L274.626 394.039C270.734 395.455 268.727 399.759 270.144 403.652L287.929 452.516C289.345 456.408 293.649 458.415 297.541 456.998L389.631 423.48L391.041 422.967L390.528 421.558L368.639 361.417Z" fill="#8C8FC2" stroke="#6063A3" stroke-width="3"/>
<rect x="192.234" y="429.348" width="21" height="57" transform="rotate(-20 192.234 429.348)" fill="#8C8FC2" stroke="#6063A3" stroke-width="3"/>
<path d="M486.525 311.061L486.012 309.651L484.603 310.164L369.96 351.891C366.068 353.307 364.061 357.611 365.478 361.504L388.051 423.523C389.468 427.416 393.771 429.423 397.664 428.006L512.306 386.279L513.716 385.766L513.203 384.357L486.525 311.061Z" fill="#DFE0F2" stroke="#6063A3" stroke-width="3"/>
<rect x="481.141" y="305.039" width="93" height="93" rx="7.5" transform="rotate(-20 481.141 305.039)" fill="#8C8FC2" stroke="#6063A3" stroke-width="3"/>
<path d="M0 752.023C0 752.023 28.2886 739.05 46.5 730.818C55.2895 726.844 62.5149 723.178 69.3353 719.717C82.5859 712.992 94.3076 707.044 113 701.13C138.169 693.167 153.202 688.482 181 686.449C207.886 684.483 223.727 686.273 250 690.484C272.011 694.012 285.232 696.907 306.455 701.553L307.5 701.782C329.063 706.503 361 714.832 361 714.832C361 714.832 386.141 703.607 403 697.215C407.002 695.698 410.555 694.284 413.896 692.955C424.551 688.717 433.041 685.34 447 682.208C467.581 677.589 480.235 676.335 502 676.335C522 676.335 548.428 681.224 574 686.449C598.693 691.494 603.205 692.88 634.099 702.369C635.199 702.707 636.332 703.055 637.5 703.413C671.5 713.853 703 732.775 703 732.775C703 732.775 731.86 726.592 750.5 722.335C770.5 717.768 783.503 715.333 805 714.832C833 714.179 851.656 714.152 876.5 719.073C901.61 724.047 918.276 728.758 939.839 734.854C942.321 735.555 944.868 736.275 947.5 737.016C975.138 744.795 987.383 750.815 1010.42 767.947C1011 768.5 1011 769 1011 769H0V752.023Z" fill="white"/>
<path d="M0 752.023C0 752.023 28.2886 739.05 46.5 730.818C55.2895 726.844 62.5149 723.178 69.3353 719.717C82.5859 712.992 94.3076 707.044 113 701.13C138.169 693.167 153.202 688.482 181 686.449C207.886 684.483 223.727 686.273 250 690.484C272.011 694.012 285.232 696.907 306.455 701.553L307.5 701.782C329.063 706.503 361 714.832 361 714.832C361 714.832 386.141 703.607 403 697.215C407.002 695.698 410.555 694.284 413.896 692.955C424.551 688.717 433.041 685.34 447 682.208C467.581 677.589 480.235 676.335 502 676.335C522 676.335 548.428 681.224 574 686.449C598.693 691.494 603.205 692.88 634.099 702.369L637.5 703.413C671.5 713.853 703 732.775 703 732.775C703 732.775 731.86 726.592 750.5 722.335C770.5 717.768 783.503 715.333 805 714.832C833 714.179 851.656 714.152 876.5 719.073C901.61 724.047 918.276 728.758 939.839 734.854C942.321 735.555 944.868 736.275 947.5 737.016C975.138 744.795 987.383 750.815 1010.42 767.947C1010 767.5 995.768 748.874 995.768 748.874C995.768 748.874 990.232 741.848 986.5 737.5C983.078 733.514 980.343 730.69 977.5 727.5C973.636 723.164 973.948 722.887 965.474 715.694C957 708.5 948.659 702.993 936.5 696.5C923.086 689.337 915.293 685.691 901 680.5C885.772 674.97 876.917 672.52 861 669.5C843.076 666.099 832.737 664.476 814.5 665C809.124 665.154 804.409 665.485 800 665.98C789.241 667.187 780.306 669.375 768.028 672.381L766.556 672.742L765.5 673C749.183 676.987 740.145 679.886 724.5 686C723.598 686.353 722.733 686.689 721.898 687.014C713.911 690.124 708.682 692.16 700.5 696.5C691.742 701.146 679 710 679 710C679 710 666.316 696.204 657 688.712C646.322 680.124 639.454 676.411 627.5 669.712C613.937 662.111 606.099 658.06 591.5 652.712C570.818 645.135 558.438 642.187 536.5 640.212C514.503 638.231 501.622 638.209 480 642.712C461.316 646.603 450.852 650.254 434 659.212C417.343 668.066 395 687.712 395 687.712C395 687.712 377.329 674.236 365 667.212C350.495 658.949 341.875 654.876 326 649.712C306.734 643.445 295.236 641.176 275 640.212C251.049 639.071 237.33 641.673 214 647.212C196.578 651.348 187.049 654.873 170.5 661.712C155.761 667.802 147.076 672.554 134.468 679.453C132.578 680.487 130.6 681.57 128.5 682.712C117.82 688.522 101.5 698.212 101.5 698.212C101.5 698.212 69.2666 676.944 46 669.712C28.5881 664.299 0 661.712 0 661.712V752.023Z" fill="#DFE0F2"/>
<path d="M0 661.712C0 661.712 28.5881 664.299 46 669.712C69.2666 676.944 101.5 698.212 101.5 698.212C101.5 698.212 117.82 688.522 128.5 682.712C130.6 681.57 132.578 680.487 134.468 679.453C147.076 672.554 155.761 667.802 170.5 661.712C187.049 654.873 196.578 651.348 214 647.212C237.33 641.673 251.049 639.071 275 640.212C295.236 641.176 306.734 643.445 326 649.712C341.875 654.876 350.495 658.949 365 667.212C377.329 674.236 395 687.712 395 687.712C395 687.712 417.343 668.066 434 659.212C450.852 650.254 461.316 646.603 480 642.712C501.622 638.209 514.503 638.231 536.5 640.212C558.438 642.187 570.818 645.135 591.5 652.712C606.099 658.06 613.937 662.111 627.5 669.712C639.454 676.411 646.322 680.124 657 688.712C666.316 696.204 679 710 679 710C679 710 691.742 701.146 700.5 696.5C708.682 692.16 713.911 690.124 721.898 687.014C722.733 686.689 723.598 686.353 724.5 686C740.145 679.886 749.183 676.987 765.5 673L766.556 672.742L768.028 672.381C780.306 669.375 789.241 667.187 800 665.98V618C800 618 780.376 619.201 768.028 621.5C750.731 624.721 741.279 628.245 724.908 634.348L724.5 634.5C707.842 640.71 683 653.212 683 653.212C683 653.212 666.745 638.072 653.5 629.712C635.647 618.443 625.194 612.449 605.5 604.841C582.251 595.861 568.357 591.518 543.5 589.712C518.657 587.907 503.597 589.404 479.5 595.712C458.397 601.236 447.301 606.28 428.5 617.341C416.312 624.512 399 638.341 399 638.341C399 638.341 385.563 623.939 375 617.341C372.34 615.679 369.995 614.112 367.789 612.637C361.069 608.143 355.637 604.51 346.5 601.712C335.432 598.321 325.066 596.182 313.5 595.712C300.866 595.198 294.349 597.023 283.986 599.924C281.99 600.483 279.852 601.082 277.5 601.712C268.383 604.152 262.15 607.667 255.178 611.599C251.906 613.444 248.472 615.381 244.5 617.341C230.324 624.339 211 640.067 211 640.067C211 640.067 185.274 620.859 166 614.067C146.461 607.181 132.705 606.506 112.5 605.567C96.2357 604.81 86.8662 605.911 71 609.567C53.2266 613.661 43.4967 617.805 27.5 626.567C16.1479 632.784 0 645.067 0 645.067V661.712Z" fill="#8C8FC2"/>
</svg>
