<svg width="1366" height="769" viewBox="0 0 1366 769" fill="none" xmlns="http://www.w3.org/2000/svg">
<path d="M0 0H1366V768H0V0Z" fill="#3A1772"/>
<path d="M683 0H1366V768H683V0Z" fill="#B9BBDE"/>
<path d="M298.999 430H284.999V433.5V461.5V513V526V545.75L252 533.732L244.5 531L250.327 521L284.999 461.5V433.5L160.28 649.764C160.097 650.082 160 650.443 160 650.811C160 653.124 161.876 655 164.189 655H171.259C172.336 655 173.33 654.423 173.864 653.488L237 543L284.999 560.5V655C284.999 656.657 286.342 658 287.999 658H295.999C297.655 658 298.999 656.657 298.999 655V560.5L347 543L410.635 653.497C411.17 654.427 412.161 655 413.234 655H419.811C422.124 655 424 653.124 424 650.811C424 650.443 423.903 650.082 423.72 649.764L298.999 433.5V461.5L333.672 521L339.5 531L332.635 533.5L298.999 545.75V526V513V461.5V433.5V430Z" fill="#8C8FC2"/>
<path d="M332.635 533.5L339.5 531L333.672 521L298.999 513V526L332.635 533.5Z" fill="#6063A3"/>
<path d="M244.5 531L252 533.732L284.999 526V513L250.327 521L244.5 531Z" fill="#6063A3"/>
<path d="M284.999 433.5V430H298.999V433.5M284.999 433.5L160.28 649.764C160.097 650.082 160 650.443 160 650.811V650.811C160 653.124 161.876 655 164.189 655H171.259C172.336 655 173.33 654.423 173.864 653.488L237 543L284.999 560.5V655C284.999 656.657 286.342 658 287.999 658H295.999C297.655 658 298.999 656.657 298.999 655V560.5L347 543L410.635 653.497C411.17 654.427 412.161 655 413.234 655H419.811C422.124 655 424 653.124 424 650.811V650.811C424 650.443 423.903 650.082 423.72 649.764L298.999 433.5M284.999 433.5V461.5M298.999 433.5V461.5M298.999 461.5V513M298.999 461.5L333.672 521M284.999 461.5L250.327 521M284.999 461.5V513M252 533.732L244.5 531L250.327 521M252 533.732L284.999 545.75V526M252 533.732L284.999 526M284.999 526V513M250.327 521L284.999 513M298.999 513L333.672 521M298.999 513V526M333.672 521L339.5 531L332.635 533.5M298.999 526V545.75L332.635 533.5M298.999 526L332.635 533.5M333 533.367L332.635 533.5" stroke="#6063A3" stroke-width="3"/>
<path d="M487.71 369.087C490.133 368.205 491.904 366.256 493.099 363.739C494.289 361.229 494.957 358.061 495.156 354.5C495.554 347.373 494.09 338.371 490.732 329.145C487.374 319.919 482.709 312.081 477.823 306.877C475.381 304.278 472.833 302.28 470.308 301.123C467.775 299.962 465.166 299.607 462.743 300.489C460.32 301.371 458.549 303.32 457.355 305.838C456.165 308.347 455.497 311.515 455.298 315.076C454.899 322.203 456.364 331.205 459.722 340.431C463.08 349.658 467.744 357.495 472.631 362.699C475.072 365.299 477.62 367.296 480.145 368.453C482.678 369.614 485.288 369.969 487.71 369.087Z" fill="#DFE0F2" stroke="#6063A3" stroke-width="3"/>
<path d="M166.331 423.384L165.818 421.975L164.408 422.488L106.147 443.693C102.255 445.11 100.248 449.414 101.665 453.306L112.609 483.376C114.026 487.268 118.33 489.275 122.222 487.859L180.483 466.653L181.893 466.14L181.38 464.731L166.331 423.384Z" fill="#DFE0F2" stroke="#6063A3" stroke-width="3"/>
<path d="M260.639 378.417L260.126 377.008L258.716 377.521L166.626 411.039C162.734 412.456 160.727 416.759 162.144 420.652L179.929 469.516C181.345 473.408 185.649 475.415 189.541 473.998L281.631 440.48L283.041 439.967L282.528 438.558L260.639 378.417Z" fill="#8C8FC2" stroke="#6063A3" stroke-width="3"/>
<rect x="84.2337" y="446.348" width="21" height="57" transform="rotate(-20 84.2337 446.348)" fill="#8C8FC2" stroke="#6063A3" stroke-width="3"/>
<path d="M378.525 328.061L378.012 326.651L376.603 327.164L261.96 368.891C258.068 370.308 256.061 374.611 257.478 378.504L280.051 440.523C281.468 444.416 285.771 446.423 289.664 445.006L404.306 403.28L405.716 402.766L405.203 401.357L378.525 328.061Z" fill="#DFE0F2" stroke="#6063A3" stroke-width="3"/>
<rect x="373.141" y="322.039" width="93" height="93" rx="7.5" transform="rotate(-20 373.141 322.039)" fill="#8C8FC2" stroke="#6063A3" stroke-width="3"/>
<path d="M0 751.023C0 751.023 28.2886 738.05 46.5 729.818C55.2895 725.844 62.5149 722.178 69.3353 718.716C82.5859 711.992 94.3076 706.044 113 700.13C138.169 692.167 153.202 687.482 181 685.449C207.886 683.483 223.727 685.273 250 689.484C272.011 693.012 285.232 695.907 306.455 700.553L307.5 700.782C329.063 705.503 361 713.832 361 713.832C361 713.832 386.141 702.607 403 696.215C407.002 694.698 410.555 693.284 413.896 691.955C424.551 687.717 433.041 684.34 447 681.208C467.581 676.589 480.236 675.335 502 675.335C522 675.335 548.428 680.224 574 685.449C598.693 690.494 603.205 691.88 634.099 701.369C635.199 701.707 636.332 702.055 637.5 702.413C671.5 712.853 703 731.775 703 731.775C703 731.775 731.86 725.592 750.5 721.335C770.5 716.768 783.503 714.333 805 713.832C833 713.179 851.656 713.152 876.5 718.073C901.61 723.047 918.276 727.758 939.839 733.854C942.321 734.555 944.868 735.275 947.5 736.016C975.138 743.795 987.383 749.815 1010.42 766.947C1011 767.5 1011 768 1011 768H0V751.023Z" fill="white"/>
<path d="M0 751.023C0 751.023 28.2886 738.05 46.5 729.818C55.2895 725.844 62.5149 722.178 69.3353 718.716C82.5859 711.992 94.3076 706.044 113 700.13C138.169 692.167 153.202 687.482 181 685.449C207.886 683.483 223.727 685.273 250 689.484C272.011 693.012 285.232 695.907 306.455 700.553L307.5 700.782C329.063 705.503 361 713.832 361 713.832C361 713.832 386.141 702.607 403 696.215C407.002 694.698 410.555 693.284 413.896 691.955C424.551 687.717 433.041 684.34 447 681.208C467.581 676.589 480.236 675.335 502 675.335C522 675.335 548.428 680.224 574 685.449C598.693 690.494 603.205 691.88 634.099 701.369L637.5 702.413C671.5 712.853 703 731.775 703 731.775C703 731.775 731.86 725.592 750.5 721.335C770.5 716.768 783.503 714.333 805 713.832C833 713.179 851.656 713.152 876.5 718.073C901.61 723.047 918.276 727.758 939.839 733.854C942.321 734.555 944.868 735.275 947.5 736.016C975.138 743.795 987.383 749.815 1010.42 766.947C1010 766.5 995.768 747.874 995.768 747.874C995.768 747.874 990.232 740.848 986.5 736.5C983.078 732.513 980.343 729.69 977.5 726.5C973.636 722.164 973.948 721.887 965.474 714.694C957 707.5 948.659 701.993 936.5 695.5C923.086 688.336 915.293 684.691 901 679.5C885.772 673.97 876.917 671.52 861 668.5C843.076 665.099 832.737 663.476 814.5 664C796.003 664.531 785.336 667.143 768.028 671.381L766.556 671.742L765.5 672C749.183 675.987 740.145 678.886 724.5 685C723.598 685.352 722.733 685.689 721.898 686.014C713.911 689.124 708.682 691.16 700.5 695.5C691.742 700.146 679 709 679 709C679 709 666.316 695.204 657 687.712C646.322 679.124 639.454 675.411 627.5 668.712C613.937 661.111 606.099 657.06 591.5 651.712C570.818 644.135 558.438 641.187 536.5 639.212C514.503 637.231 501.622 637.209 480 641.712C461.316 645.603 450.852 649.254 434 658.212C417.343 667.066 395 686.712 395 686.712C395 686.712 377.329 673.236 365 666.212C350.495 657.948 341.875 653.876 326 648.712C306.734 642.445 295.236 640.176 275 639.212C251.049 638.071 237.33 640.673 214 646.212C196.578 650.348 187.049 653.873 170.5 660.712C155.761 666.802 147.076 671.554 134.468 678.453C132.578 679.487 130.6 680.569 128.5 681.712C117.82 687.522 101.5 697.212 101.5 697.212C101.5 697.212 69.2666 675.944 46 668.712C28.5881 663.299 0 660.712 0 660.712V751.023Z" fill="#DFE0F2"/>
<path d="M0 660.712C0 660.712 28.5881 663.299 46 668.712C69.2666 675.944 101.5 697.212 101.5 697.212C101.5 697.212 117.82 687.522 128.5 681.712C130.6 680.569 132.578 679.487 134.468 678.453C147.076 671.554 155.761 666.802 170.5 660.712C187.049 653.873 196.578 650.348 214 646.212C237.33 640.673 251.049 638.071 275 639.212C295.236 640.176 306.734 642.445 326 648.712C341.875 653.876 350.495 657.948 365 666.212C377.329 673.236 395 686.712 395 686.712C395 686.712 417.343 667.066 434 658.212C450.852 649.254 461.316 645.603 480 641.712C501.622 637.209 514.503 637.231 536.5 639.212C558.438 641.187 570.818 644.135 591.5 651.712C606.099 657.06 613.937 661.111 627.5 668.712C639.454 675.411 646.322 679.124 657 687.712C666.316 695.204 679 709 679 709L683 706.5V652.212C683 652.212 666.745 637.071 653.5 628.712C635.647 617.443 625.194 611.448 605.5 603.841C582.251 594.86 568.357 590.517 543.5 588.712C518.657 586.907 503.597 588.403 479.5 594.712C458.397 600.236 447.301 605.279 428.5 616.341C416.312 623.512 399 637.341 399 637.341C399 637.341 385.563 622.939 375 616.341C372.34 614.679 369.995 613.111 367.789 611.636C361.069 607.143 355.637 603.51 346.5 600.712C335.432 597.321 325.066 595.182 313.5 594.712C300.866 594.198 294.349 596.022 283.986 598.924C281.99 599.483 279.852 600.082 277.5 600.712C268.383 603.152 262.15 606.667 255.178 610.599C251.906 612.444 248.472 614.38 244.5 616.341C230.324 623.339 211 639.066 211 639.066C211 639.066 185.274 619.858 166 613.066C146.461 606.181 132.705 605.506 112.5 604.566C96.2357 603.81 86.8662 604.911 71 608.566C53.2266 612.661 43.4967 616.805 27.5 625.566C16.1479 631.784 0 644.066 0 644.066V660.712Z" fill="#8C8FC2"/>
</svg>
