<svg width="1366" height="768" viewBox="0 0 1366 768" fill="none" xmlns="http://www.w3.org/2000/svg">
<path d="M0 0H1366V768H0V0Z" fill="#3A1772"/>
<path d="M856 0C856 0 822.163 16.3435 810 35.5C796.33 57.0307 812.256 93.4661 800 119.5C794.118 131.995 792.522 143.264 780.5 138C772.731 134.599 766 128.334 766 119C766 112 767.479 101.942 761 96.5C753.934 90.5654 746.637 108.971 738 112C729.308 115.048 714.606 108.633 709.5 115.5C697.364 131.824 729.137 164.068 716.5 168C699.288 173.355 682.267 147.966 664.5 157.5C658.763 160.578 652.741 169.47 648.307 179C642.869 190.69 650.092 201.079 642.5 211.5C634.837 222.018 622.84 218.484 613 227C590.775 246.234 591.442 269.866 589.5 298.5C587.031 334.894 591.988 359.797 614.5 388.5C634.5 414 662.325 437.729 647 464C642.423 471.846 641.51 473.277 635.998 477C628.54 482.038 620.94 476.935 613.5 482C603.319 488.93 613.5 507 600 510.5C581.737 515.235 586.283 495.743 575 496C560.5 496.33 563 513.5 548 521.5C516.319 538.397 499.467 557.856 490 583C479.724 610.291 483.572 634.731 501 653.5C514 667.5 515 678 496.5 691.5C489.156 696.859 486.929 701.359 490 709C493.405 717.473 496.827 729.504 491 733C483.382 737.571 475.425 733.012 466.009 729.5C456.883 726.096 446.387 723.676 433.5 731.5C398.293 752.876 372 768 372 768H1366V0H856Z" fill="#B9BBDE"/>
</svg>
