<svg width="500" height="211" viewBox="0 0 500 211" fill="none" xmlns="http://www.w3.org/2000/svg">
<g filter="url(#filter0_d_195_268)">
<path fill-rule="evenodd" clip-rule="evenodd" d="M459 124.165C459 167.704 359.377 203 236.486 203C154.7 203 83.2196 187.367 44.5519 164.075C97.6083 173.808 128.024 178.374 176.894 178.297C188.525 178.987 200.556 179.35 212.872 179.35C313.693 179.35 395.424 155.084 395.424 125.15C395.424 95.2172 313.693 70.9514 212.872 70.9514C161.323 70.9514 114.764 77.2951 81.5683 87.4966C76.5697 83.6339 68.0923 80.2085 57.1433 77.4908C97.6502 57.9866 162.896 45.33 236.486 45.33C359.377 45.33 459 80.6256 459 124.165ZM55.45 165.041C51.1875 164.274 46.7815 163.469 42.2065 162.628C41.8859 162.425 41.5678 162.221 41.2522 162.018C44.5519 162.753 47.8908 163.474 51.2641 164.179C52.6641 164.471 54.0595 164.758 55.45 165.041ZM146.358 176.643C151.176 176.872 156.112 177.041 161.226 177.15C159.367 176.987 157.52 176.816 155.686 176.637C152.768 176.709 149.653 176.71 146.358 176.643Z" fill="#8C8FC2"/>
<path d="M101.614 60.2368C103.049 60.2869 103.518 62.185 102.298 63.0068L84.2238 75.1873C83.6785 75.5548 83.4148 76.2308 83.5706 76.8617L88.7346 97.7725C89.0829 99.1832 87.4423 100.289 86.3403 99.386L70.0056 86.0032C69.5128 85.5994 68.8099 85.5748 68.2646 85.9423L50.19 98.1229C48.9706 98.9446 47.4879 97.7299 48.0262 96.3501L56.0054 75.8985C56.2461 75.2815 56.0755 74.5904 55.5826 74.1866L39.2479 60.8038C38.1459 59.901 38.8702 58.0446 40.3049 58.0947L61.571 58.8377C62.2126 58.8601 62.81 58.4575 63.0508 57.8405L71.03 37.3889C71.5682 36.0092 73.4986 36.0766 73.847 37.4873L79.011 58.3982C79.1668 59.029 79.7066 59.4714 80.3483 59.4938L101.614 60.2368Z" fill="#DFE0F2"/>
<path d="M148.501 11.6098C149.284 9.84889 151.872 10.1625 152.278 12.0675L158.291 40.3046C158.472 41.1566 159.178 41.8039 160.038 41.9082L188.548 45.3632C190.471 45.5963 191.017 48.1594 189.344 49.1037L164.551 63.1002C163.803 63.5224 163.419 64.3851 163.601 65.2371L169.614 93.4743C170.02 95.3792 167.769 96.6497 166.33 95.3283L144.993 75.7414C144.349 75.1505 143.407 75.0363 142.659 75.4586L117.865 89.4551C116.193 90.3993 114.256 88.6214 115.039 86.8605L126.646 60.7587C126.996 59.9712 126.797 59.0379 126.153 58.4469L104.817 38.8601C103.377 37.5387 104.431 35.1694 106.354 35.4025L134.864 38.8575C135.725 38.9618 136.544 38.4991 136.894 37.7116L148.501 11.6098Z" fill="#DFE0F2"/>
</g>
<g filter="url(#filter1_d_195_268)">
<path d="M39.51 155H7.45C5.91 155 4.86 153.81 5.14 152.34L6.47 144.92C6.75 143.45 8.22 142.19 9.76 142.19H40.49C41.4 142.19 42.31 141.49 42.45 140.58L42.87 138.27C43.01 137.36 42.38 136.59 41.47 136.59H19.42C12.21 136.59 7.45 130.92 8.71 123.85L9.62 118.88C10.88 111.81 17.74 106.07 24.88 106.07H57.57C59.11 106.07 60.16 107.26 59.88 108.8L58.62 115.8C58.34 117.34 56.87 118.53 55.33 118.53H25.44C24.53 118.53 23.62 119.3 23.48 120.21L22.92 123.29C22.78 124.2 23.34 124.9 24.25 124.9H46.37C53.58 124.9 58.34 130.64 57.08 137.71L56.24 142.26C54.98 149.33 48.12 155.07 40.98 155.07H39.51V155ZM106.503 110.06C108.113 110.06 109.233 111.39 108.953 113.07L107.833 119.37C107.553 120.98 106.083 122.17 104.473 122.17H92.2927C92.2227 122.17 92.1527 122.24 92.1527 122.31L86.7627 152.27C86.4127 153.81 84.9427 155 83.4027 155H75.0727C74.2327 155 73.5327 154.72 73.1127 154.16C72.6227 153.6 72.4827 152.83 72.6227 152.06L78.0127 122.17H65.8327C65.0627 122.17 64.3627 121.89 63.8727 121.33C63.3827 120.77 63.2427 120 63.3827 119.23L64.5027 112.86C64.7827 111.32 66.2527 110.06 67.8627 110.06H106.503ZM138.098 112.72L150.768 151.43C151.258 153.11 149.928 155.07 148.178 155.07H138.168C137.258 155.07 136.558 154.44 136.278 153.6L135.228 150.24H114.508L113.738 151.36L112.128 153.74C111.498 154.58 110.588 155.07 109.678 155.07H99.0379C97.1479 155.07 96.1679 152.97 97.4279 151.29L122.908 112.65C124.588 110.41 126.688 110.2 128.928 110.13C129.768 110.13 134.178 110.2 134.808 110.2C135.648 110.2 137.398 110.69 138.098 112.72ZM131.728 138.9L128.578 128.82L121.928 138.9H131.728ZM196.984 110.06C203.774 110.06 208.254 115.45 207.064 122.1L205.244 132.11C204.474 136.45 201.324 140.37 197.054 142.47C196.984 142.54 196.914 142.61 196.914 142.61L202.024 151.57C202.444 152.27 202.444 153.11 202.024 153.81C201.674 154.51 200.904 154.86 200.134 154.86C195.654 154.86 194.184 155 190.404 155C188.024 155 186.974 154.79 186.344 153.6L181.724 144.36C181.584 144.08 181.304 143.94 180.954 143.94H170.874C170.804 143.94 170.734 144.01 170.734 144.08L169.264 152.27C168.984 153.81 167.514 155 165.904 155H157.574C155.964 155 154.844 153.67 155.124 152.06L162.194 112.86C162.474 111.32 164.014 110.06 165.554 110.06H196.984ZM192.574 123.64C192.644 123.15 192.504 122.73 192.294 122.45C192.014 122.1 191.594 121.96 191.174 121.96H174.864C174.794 121.96 174.724 122.03 174.724 122.1L172.904 132.04H189.144C190.194 132.04 191.174 131.2 191.384 130.22L192.574 123.64ZM259.678 110.2C261.358 110.2 262.478 111.53 262.198 113.14L261.008 119.44C260.728 120.98 259.258 122.24 257.648 122.24H228.808C228.178 122.24 227.618 122.8 227.478 123.36L224.188 141.63C224.118 141.91 224.188 142.19 224.328 142.33C224.468 142.54 224.678 142.61 224.958 142.61H242.668C242.738 142.61 242.808 142.54 242.808 142.47L243.578 138.2H234.128C233.568 138.2 233.148 137.99 232.798 137.64C232.518 137.29 232.378 136.8 232.448 136.24L233.848 128.61C233.988 127.63 234.968 126.79 236.018 126.79H256.738C257.508 126.79 258.208 127.14 258.698 127.7C259.118 128.26 259.328 128.96 259.188 129.8L255.128 152.27C254.848 153.88 253.308 155.07 251.768 155.07C249.948 155.07 254.008 155.14 219.638 155C212.918 155 208.438 149.61 209.628 143.03L213.408 122.03C214.598 115.52 221.038 110.2 227.688 110.2H259.678ZM300.246 112.72L312.916 151.43C313.406 153.11 312.076 155.07 310.326 155.07H300.316C299.406 155.07 298.706 154.44 298.426 153.6L297.376 150.24H276.656L275.886 151.36L274.276 153.74C273.646 154.58 272.736 155.07 271.826 155.07H261.186C259.296 155.07 258.316 152.97 259.576 151.29L285.056 112.65C286.736 110.41 288.836 110.2 291.076 110.13C291.916 110.13 296.326 110.2 296.956 110.2C297.796 110.2 299.546 110.69 300.246 112.72ZM293.876 138.9L290.726 128.82L284.076 138.9H293.876ZM364.522 110.13C366.202 110.13 367.322 111.46 366.972 113.07L365.992 118.67C365.642 120.77 364.312 122.8 362.422 124.2L339.532 142.54C339.462 142.61 339.462 142.68 339.462 142.68H358.642C360.322 142.68 361.442 144.01 361.162 145.62L359.902 152.2C359.622 153.81 358.152 155 356.612 155H318.182C316.572 155 315.452 153.67 315.732 152.06L316.782 146.25C317.202 144.08 318.532 142.05 320.422 140.65L343.522 122.31C343.662 122.24 343.662 122.17 343.662 122.17L324.482 122.24C322.802 122.24 321.682 120.91 322.032 119.3L323.152 112.93C323.432 111.39 324.902 110.13 326.512 110.13H364.522ZM384.978 110.06C386.658 110.06 387.708 111.46 387.428 113.07L380.358 152.27C380.078 153.81 378.608 155 376.998 155H368.668C367.898 155 367.198 154.72 366.708 154.16C366.288 153.6 366.078 152.83 366.218 152.06L373.288 112.86C373.568 111.32 375.038 110.06 376.648 110.06H384.978ZM439.124 110.13C440.804 110.13 441.924 111.46 441.644 113.07L434.574 152.27C434.294 153.81 432.824 155.07 431.214 155.07H422.114C421.204 155.07 420.434 154.65 419.944 153.95L406.364 130.08C406.294 130.01 406.224 130.01 406.154 130.01C406.084 130.01 406.084 130.08 406.084 130.15L402.094 152.2C401.744 153.81 400.274 155 398.734 155H390.474C388.794 155 387.674 153.67 387.954 152.06L395.024 112.93C395.304 111.32 396.844 110.13 398.384 110.13H408.954C409.794 110.13 410.564 110.48 411.054 111.18L423.514 133.37C423.584 133.44 423.724 133.44 423.724 133.44C423.794 133.44 423.864 133.37 423.864 133.3L427.574 112.93C427.854 111.32 429.324 110.13 430.934 110.13H439.124ZM493.193 110.2C494.873 110.2 495.993 111.53 495.713 113.14L494.523 119.44C494.243 120.98 492.773 122.24 491.163 122.24H462.323C461.693 122.24 461.133 122.8 460.993 123.36L457.703 141.63C457.633 141.91 457.703 142.19 457.843 142.33C457.983 142.54 458.193 142.61 458.473 142.61H476.183C476.253 142.61 476.323 142.54 476.323 142.47L477.093 138.2H467.643C467.083 138.2 466.663 137.99 466.313 137.64C466.033 137.29 465.893 136.8 465.963 136.24L467.363 128.61C467.503 127.63 468.483 126.79 469.533 126.79H490.253C491.023 126.79 491.723 127.14 492.213 127.7C492.633 128.26 492.843 128.96 492.703 129.8L488.643 152.27C488.363 153.88 486.823 155.07 485.283 155.07C483.463 155.07 487.523 155.14 453.153 155C446.433 155 441.953 149.61 443.143 143.03L446.923 122.03C448.113 115.52 454.553 110.2 461.203 110.2H493.193Z" fill="#FAFAFD"/>
</g>
<defs>
<filter id="filter0_d_195_268" x="34.7134" y="10.4488" width="428.286" height="200.551" filterUnits="userSpaceOnUse" color-interpolation-filters="sRGB">
<feFlood flood-opacity="0" result="BackgroundImageFix"/>
<feColorMatrix in="SourceAlpha" type="matrix" values="0 0 0 0 0 0 0 0 0 0 0 0 0 0 0 0 0 0 127 0" result="hardAlpha"/>
<feOffset dy="4"/>
<feGaussianBlur stdDeviation="2"/>
<feComposite in2="hardAlpha" operator="out"/>
<feColorMatrix type="matrix" values="0 0 0 0 0 0 0 0 0 0 0 0 0 0 0 0 0 0 0.25 0"/>
<feBlend mode="normal" in2="BackgroundImageFix" result="effect1_dropShadow_195_268"/>
<feBlend mode="normal" in="SourceGraphic" in2="effect1_dropShadow_195_268" result="shape"/>
</filter>
<filter id="filter1_d_195_268" x="0.859985" y="106.07" width="499.133" height="57.07" filterUnits="userSpaceOnUse" color-interpolation-filters="sRGB">
<feFlood flood-opacity="0" result="BackgroundImageFix"/>
<feColorMatrix in="SourceAlpha" type="matrix" values="0 0 0 0 0 0 0 0 0 0 0 0 0 0 0 0 0 0 127 0" result="hardAlpha"/>
<feOffset dy="4"/>
<feGaussianBlur stdDeviation="2"/>
<feComposite in2="hardAlpha" operator="out"/>
<feColorMatrix type="matrix" values="0 0 0 0 0 0 0 0 0 0 0 0 0 0 0 0 0 0 0.25 0"/>
<feBlend mode="normal" in2="BackgroundImageFix" result="effect1_dropShadow_195_268"/>
<feBlend mode="normal" in="SourceGraphic" in2="effect1_dropShadow_195_268" result="shape"/>
</filter>
</defs>
</svg>
