<svg width="425" height="373" viewBox="0 0 425 373" fill="none" xmlns="http://www.w3.org/2000/svg">
<path d="M218.999 143H204.999V146.5V174.5V226V239V258.75L172 246.732L164.5 244L170.327 234L204.999 174.5V146.5L80 363.25V368H93L157 256L204.999 273.5V365C204.999 368.314 207.685 371 210.999 371H212.999C216.312 371 218.999 368.314 218.999 365V273.5L267 256L331.5 368H344V363.25L218.999 146.5V174.5L253.672 234L259.5 244L252.635 246.5L218.999 258.75V239V226V174.5V146.5V143Z" fill="#8C8FC2"/>
<path d="M252.635 246.5L259.5 244L253.672 234L218.999 226V239L252.635 246.5Z" fill="#6063A3"/>
<path d="M164.5 244L172 246.732L204.999 239V226L170.327 234L164.5 244Z" fill="#6063A3"/>
<path d="M204.999 146.5V143H218.999V146.5M204.999 146.5L80 363.25V368H93L157 256L204.999 273.5V365C204.999 368.314 207.685 371 210.999 371H212.999C216.312 371 218.999 368.314 218.999 365V273.5L267 256L331.5 368H344V363.25L218.999 146.5M204.999 146.5V174.5M218.999 146.5V174.5M218.999 174.5V226M218.999 174.5L253.672 234M204.999 174.5L170.327 234M204.999 174.5V226M172 246.732L164.5 244L170.327 234M172 246.732L204.999 258.75V239M172 246.732L204.999 239M204.999 239V226M170.327 234L204.999 226M218.999 226L253.672 234M218.999 226V239M253.672 234L259.5 244L252.635 246.5M218.999 239V258.75L252.635 246.5M218.999 239L252.635 246.5M253 246.367L252.635 246.5" stroke="#6063A3" stroke-width="3"/>
<path d="M407.71 82.0868C410.133 81.2049 411.904 79.2561 413.099 76.7386C414.289 74.2292 414.957 71.0611 415.156 67.5002C415.554 60.3727 414.09 51.3708 410.732 42.1447C407.374 32.9185 402.709 25.0813 397.823 19.8773C395.381 17.2775 392.833 15.2799 390.308 14.1228C387.775 12.9619 385.166 12.6074 382.743 13.4892C380.32 14.371 378.549 16.3199 377.355 18.8374C376.165 21.3468 375.497 24.5149 375.298 28.0758C374.899 35.2032 376.364 44.2052 379.722 53.4313C383.08 62.6575 387.744 70.4947 392.631 75.6987C395.072 78.2985 397.62 80.296 400.145 81.4532C402.678 82.6141 405.288 82.9686 407.71 82.0868Z" fill="#DFE0F2" stroke="#6063A3" stroke-width="3"/>
<path d="M86.3308 136.384L85.8178 134.975L84.4082 135.488L26.1473 156.693C22.255 158.11 20.2481 162.414 21.6647 166.306L32.6094 196.376C34.0261 200.268 38.3299 202.275 42.2222 200.859L100.483 179.653L101.893 179.14L101.38 177.731L86.3308 136.384Z" fill="#DFE0F2" stroke="#6063A3" stroke-width="3"/>
<path d="M180.639 91.4172L180.126 90.0077L178.716 90.5207L86.6262 124.039C82.7338 125.455 80.7269 129.759 82.1436 133.652L99.9287 182.516C101.345 186.408 105.649 188.415 109.542 186.998L201.631 153.48L203.041 152.967L202.528 151.558L180.639 91.4172Z" fill="#8C8FC2" stroke="#6063A3" stroke-width="3"/>
<rect x="4.2338" y="159.348" width="21" height="57" transform="rotate(-20 4.2338 159.348)" fill="#8C8FC2" stroke="#6063A3" stroke-width="3"/>
<path d="M298.525 41.0608L298.012 39.6513L296.603 40.1643L181.96 81.8908C178.068 83.3075 176.061 87.6113 177.478 91.5036L200.051 153.523C201.468 157.416 205.771 159.423 209.664 158.006L324.306 116.279L325.716 115.766L325.203 114.357L298.525 41.0608Z" fill="#DFE0F2" stroke="#6063A3" stroke-width="3"/>
<rect x="293.141" y="35.0392" width="93" height="93" rx="7.5" transform="rotate(-20 293.141 35.0392)" fill="#8C8FC2" stroke="#6063A3" stroke-width="3"/>
</svg>
